<svg xmlns="http://www.w3.org/2000/svg" xmlns:xlink="http://www.w3.org/1999/xlink" viewBox="0 0 713.65 421.84"><defs><linearGradient id="linear-gradient" x1="2299.93" y1="4058.8" x2="2299.93" y2="4059.8" gradientTransform="matrix(314, 0, 0, -379, -721981.18, 1538700.1)" gradientUnits="userSpaceOnUse"><stop offset="0" stop-color="#15244a"/><stop offset="0.37" stop-color="#1047a6"/><stop offset="0.56" stop-color="#0d58d3"/><stop offset="0.66" stop-color="#0899e4"/><stop offset="0.75" stop-color="#04d0f3"/><stop offset="0.82" stop-color="#01f2fc"/><stop offset="0.85" stop-color="aqua"/></linearGradient><linearGradient id="linear-gradient-2" x1="2376.78" y1="3899.23" x2="2376.78" y2="3900.25" gradientTransform="translate(-117409.53 15227.84) rotate(-66) scale(26)" gradientUnits="userSpaceOnUse"><stop offset="0" stop-color="#0d58d3"/><stop offset="0.49" stop-color="#0899e4"/><stop offset="0.79" stop-color="#04d0f3"/><stop offset="0.93" stop-color="#01f2fc"/><stop offset="1" stop-color="aqua"/></linearGradient><linearGradient id="linear-gradient-3" x1="2399.36" y1="3759.38" x2="2398.36" y2="3759.38" gradientTransform="matrix(-32, 0, 0, 11, 76780.93, -40937.41)" gradientUnits="userSpaceOnUse"><stop offset="0" stop-color="#0d58d3"/><stop offset="0.18" stop-color="#194eb7" stop-opacity="0.83"/><stop offset="0.25" stop-color="#1352c4" stop-opacity="0.9"/><stop offset="0.32" stop-color="#1056cc" stop-opacity="0.96"/><stop offset="0.4" stop-color="#0e57d1" stop-opacity="0.99"/><stop offset="0.46" stop-color="#0d58d3"/><stop offset="0.53" stop-color="#0c67d7"/><stop offset="0.67" stop-color="#098fe1"/><stop offset="0.86" stop-color="#04cef2"/><stop offset="1" stop-color="aqua"/></linearGradient></defs><g id="Layer_2" data-name="Layer 2"><g id="Layer_1-2" data-name="Layer 1"><text transform="translate(603.72 191.22)" font-size="24" fill="#e6e6e6" font-family="IsotonicTRIAL-Rg, Isotonic TRIAL"> </text><g id="Our-core-infrastruct" style="isolation:isolate"><g style="isolation:isolate"><path d="M502.86,277.8V284a5.19,5.19,0,0,1-10.37,0V277.8c0-3.1,2-5,5.18-5A4.82,4.82,0,0,1,502.86,277.8Zm-8.55-.05V284a3.35,3.35,0,0,0,6.7,0v-6.26a3.35,3.35,0,0,0-6.7,0Z" fill="#63636c"/><path d="M506.07,284.81v-7.9a.28.28,0,0,1,.29-.31h1.17a.28.28,0,0,1,.29.31v7.9a2.39,2.39,0,0,0,2.47,2.64,2.67,2.67,0,0,0,2.74-2.88v-7.66a.29.29,0,0,1,.31-.31h1.15a.28.28,0,0,1,.29.31v11.54a.29.29,0,0,1-.29.32h-.88a.34.34,0,0,1-.34-.32l-.1-1A3.78,3.78,0,0,1,510,289C507.49,289,506.07,287.35,506.07,284.81Z" fill="#63636c"/><path d="M520,281.18v7.27a.29.29,0,0,1-.29.32h-1.17a.29.29,0,0,1-.29-.32V276.91a.28.28,0,0,1,.29-.31h.88a.32.32,0,0,1,.34.31l.12,1.39a3.58,3.58,0,0,1,3.12-1.7h.5a.29.29,0,0,1,.32.31v1a.29.29,0,0,1-.32.31h-.64A2.76,2.76,0,0,0,520,281.18Z" fill="#63636c"/><path d="M534.53,276.6h2.76a.29.29,0,0,1,.32.31v.91a.29.29,0,0,1-.32.31h-2.68a2.68,2.68,0,0,0-2.79,2.91v3.29a2.69,2.69,0,0,0,2.81,2.9h2.81a.29.29,0,0,1,.31.31v.91a.29.29,0,0,1-.31.32h-2.86a4.26,4.26,0,0,1-4.51-4.56v-3A4.23,4.23,0,0,1,534.53,276.6Z" fill="#63636c"/><path d="M548.77,280.92v3.53a4.48,4.48,0,1,1-9,0v-3.53a4.48,4.48,0,1,1,9,0Zm-7.2-.15v3.82a2.72,2.72,0,1,0,5.42,0v-3.82a2.72,2.72,0,1,0-5.42,0Z" fill="#63636c"/><path d="M553.57,281.18v7.27a.29.29,0,0,1-.29.32H552.1a.29.29,0,0,1-.29-.32V276.91a.28.28,0,0,1,.29-.31H553a.33.33,0,0,1,.34.31l.12,1.39a3.58,3.58,0,0,1,3.12-1.7h.5a.29.29,0,0,1,.31.31v1a.29.29,0,0,1-.31.31h-.65A2.76,2.76,0,0,0,553.57,281.18Z" fill="#63636c"/><path d="M560.6,284.54a2.59,2.59,0,0,0,2.81,2.69h3.31a.29.29,0,0,1,.31.31v.91a.29.29,0,0,1-.31.32h-3.36a4.15,4.15,0,0,1-4.49-4.32v-3.53a4.41,4.41,0,1,1,8.81,0v1.92a.28.28,0,0,1-.29.31H560.6Zm0-3.82v1.06H566v-1.06a2.72,2.72,0,1,0-5.42,0Z" fill="#63636c"/><path d="M576,274.34a.28.28,0,0,1-.31-.29v-1.7A.29.29,0,0,1,576,272h1.18a.29.29,0,0,1,.31.31v1.7a.28.28,0,0,1-.31.29Zm-.29,2.57a.28.28,0,0,1,.29-.31h1.18a.28.28,0,0,1,.28.31v11.54a.29.29,0,0,1-.28.32H576a.29.29,0,0,1-.29-.32Z" fill="#63636c"/><path d="M582.73,288.45a.29.29,0,0,1-.29.32h-1.18a.29.29,0,0,1-.29-.32V276.91a.28.28,0,0,1,.29-.31h.89a.32.32,0,0,1,.33.31l.1,1a3.8,3.8,0,0,1,3.22-1.6c2.57,0,4,1.68,4,4.27v7.82a.29.29,0,0,1-.29.32h-1.17a.29.29,0,0,1-.29-.32v-7.82a2.47,2.47,0,0,0-2.59-2.71,2.67,2.67,0,0,0-2.76,2.88Z" fill="#63636c"/><path d="M592.28,278.08a.3.3,0,0,1-.32-.31v-.86a.3.3,0,0,1,.32-.31h1.58v-.7c0-2.45,1.32-3.86,3.82-3.86h.81a.31.31,0,0,1,.32.31v.89a.3.3,0,0,1-.32.28h-.72c-1.6,0-2.16,1-2.16,2.31v.77h2.72a.29.29,0,0,1,.31.31v.86a.29.29,0,0,1-.31.31h-2.72v10.37a.29.29,0,0,1-.31.32h-1.15a.29.29,0,0,1-.29-.32V278.08Z" fill="#63636c"/><path d="M602.5,281.18v7.27a.29.29,0,0,1-.29.32H601a.29.29,0,0,1-.29-.32V276.91a.28.28,0,0,1,.29-.31h.88a.32.32,0,0,1,.34.31l.12,1.39a3.58,3.58,0,0,1,3.12-1.7h.5a.29.29,0,0,1,.32.31v1a.29.29,0,0,1-.32.31h-.64A2.76,2.76,0,0,0,602.5,281.18Z" fill="#63636c"/><path d="M615.05,288.77a.35.35,0,0,1-.36-.29l-.09-1.06a3.66,3.66,0,0,1-3.2,1.59c-2.28,0-3.86-1.23-3.86-3.56s1.66-3.41,4.32-3.74l2.59-.34v-1a2.16,2.16,0,0,0-2.47-2.26h-3.31a.28.28,0,0,1-.29-.31v-.91a.28.28,0,0,1,.29-.31h3.5c2.57,0,4.06,1.48,4.06,3.89v8a.29.29,0,0,1-.31.32Zm-3.41-1.25a2.65,2.65,0,0,0,2.81-2.83v-1.9l-2.33.29c-1.2.14-2.78.53-2.78,2.3A2,2,0,0,0,611.64,287.52Z" fill="#63636c"/><path d="M619.35,288.77a.29.29,0,0,1-.29-.32v-.91a.28.28,0,0,1,.29-.29H623c1.8,0,2.45-.74,2.45-1.82s-.5-1.47-1.65-1.85l-2.14-.7c-1.37-.45-2.74-1.29-2.74-3.14s1.44-3.14,3.89-3.14h3.48a.28.28,0,0,1,.29.31v.91a.28.28,0,0,1-.29.29H622.8c-1.22,0-2.18.45-2.18,1.51,0,.79.46,1.27,1.46,1.61l2,.67c1.72.58,3.16,1.35,3.16,3.41s-1.46,3.46-4.2,3.46Z" fill="#63636c"/><path d="M632.31,278.08V285c0,1.49.69,2.25,2,2.25h.84a.28.28,0,0,1,.31.29v.91a.29.29,0,0,1-.31.32h-.94c-2.21,0-3.62-1.23-3.62-3.84v-6.85H629a.29.29,0,0,1-.32-.31v-.86a.29.29,0,0,1,.32-.31h1.56v-3.29a.29.29,0,0,1,.31-.31H632a.28.28,0,0,1,.29.31v3.29h2.81a.29.29,0,0,1,.31.31v.86a.29.29,0,0,1-.31.31Z" fill="#63636c"/><path d="M639.53,281.18v7.27a.29.29,0,0,1-.29.32h-1.17a.29.29,0,0,1-.29-.32V276.91a.28.28,0,0,1,.29-.31H639a.32.32,0,0,1,.33.31l.12,1.39a3.58,3.58,0,0,1,3.12-1.7H643a.29.29,0,0,1,.31.31v1a.29.29,0,0,1-.31.31h-.65A2.76,2.76,0,0,0,639.53,281.18Z" fill="#63636c"/><path d="M645.44,284.81v-7.9a.28.28,0,0,1,.28-.31h1.18a.28.28,0,0,1,.29.31v7.9a2.39,2.39,0,0,0,2.47,2.64,2.68,2.68,0,0,0,2.74-2.88v-7.66a.29.29,0,0,1,.31-.31h1.15a.28.28,0,0,1,.29.31v11.54a.29.29,0,0,1-.29.32H653a.33.33,0,0,1-.33-.32l-.1-1a3.79,3.79,0,0,1-3.19,1.59C646.85,289,645.44,287.35,645.44,284.81Z" fill="#63636c"/><path d="M661.64,276.6h2.76a.29.29,0,0,1,.31.31v.91a.29.29,0,0,1-.31.31h-2.69a2.68,2.68,0,0,0-2.79,2.91v3.29a2.7,2.7,0,0,0,2.81,2.9h2.81a.29.29,0,0,1,.31.31v.91a.29.29,0,0,1-.31.32h-2.86a4.27,4.27,0,0,1-4.51-4.56v-3A4.23,4.23,0,0,1,661.64,276.6Z" fill="#63636c"/><path d="M669.89,278.08V285c0,1.49.7,2.25,2,2.25h.84a.28.28,0,0,1,.31.29v.91a.29.29,0,0,1-.31.32h-.94c-2.2,0-3.62-1.23-3.62-3.84v-6.85h-1.56a.29.29,0,0,1-.31-.31v-.86a.29.29,0,0,1,.31-.31h1.56v-3.29a.29.29,0,0,1,.31-.31h1.15a.28.28,0,0,1,.29.31v3.29h2.81a.29.29,0,0,1,.31.31v.86a.29.29,0,0,1-.31.31Z" fill="#63636c"/><path d="M675.29,284.81v-7.9a.28.28,0,0,1,.29-.31h1.18a.28.28,0,0,1,.28.31v7.9a2.39,2.39,0,0,0,2.48,2.64,2.67,2.67,0,0,0,2.73-2.88v-7.66a.29.29,0,0,1,.31-.31h1.16a.28.28,0,0,1,.28.31v11.54a.29.29,0,0,1-.28.32h-.89a.35.35,0,0,1-.34-.32l-.09-1a3.81,3.81,0,0,1-3.2,1.59C676.71,289,675.29,287.35,675.29,284.81Z" fill="#63636c"/><path d="M689.21,281.18v7.27a.29.29,0,0,1-.29.32h-1.17a.29.29,0,0,1-.29-.32V276.91a.28.28,0,0,1,.29-.31h.89a.32.32,0,0,1,.33.31l.12,1.39a3.58,3.58,0,0,1,3.12-1.7h.51a.29.29,0,0,1,.31.31v1a.29.29,0,0,1-.31.31h-.65A2.76,2.76,0,0,0,689.21,281.18Z" fill="#63636c"/><path d="M696.24,284.54a2.59,2.59,0,0,0,2.81,2.69h3.31a.29.29,0,0,1,.32.31v.91a.29.29,0,0,1-.32.32H699a4.15,4.15,0,0,1-4.48-4.32v-3.53a4.23,4.23,0,0,1,4.46-4.56c2.57,0,4.34,1.75,4.34,4.56v1.92a.28.28,0,0,1-.28.31h-6.8Zm0-3.82v1.06h5.43v-1.06a2.72,2.72,0,1,0-5.43,0Z" fill="#63636c"/></g></g><g id="Your-development-tea" style="isolation:isolate"><g style="isolation:isolate"><path d="M497.41,104a.28.28,0,0,1-.29.31H495.9a.29.29,0,0,1-.31-.31v-6l-4.44-9.22c-.07-.14,0-.26.19-.26h1.37a.44.44,0,0,1,.41.26l3.43,7.42L500,88.83a.45.45,0,0,1,.44-.26h1.22c.17,0,.26.12.19.26L497.41,98Z" fill="#63636c"/><path d="M511.31,96.49V100a4.48,4.48,0,1,1-8.95,0V96.49a4.48,4.48,0,1,1,8.95,0Zm-7.2-.14v3.81a2.72,2.72,0,1,0,5.42,0V96.35a2.72,2.72,0,1,0-5.42,0Z" fill="#63636c"/><path d="M514.28,100.38v-7.9a.28.28,0,0,1,.29-.31h1.18a.28.28,0,0,1,.29.31v7.9a2.39,2.39,0,0,0,2.47,2.64,2.67,2.67,0,0,0,2.73-2.88V92.48a.29.29,0,0,1,.32-.31h1.15a.28.28,0,0,1,.29.31V104a.28.28,0,0,1-.29.31h-.89a.34.34,0,0,1-.34-.31l-.09-1a3.82,3.82,0,0,1-3.19,1.58C515.7,104.58,514.28,102.92,514.28,100.38Z" fill="#63636c"/><path d="M528.2,96.75V104a.28.28,0,0,1-.28.31h-1.18a.28.28,0,0,1-.29-.31V92.48a.28.28,0,0,1,.29-.31h.89a.32.32,0,0,1,.33.31l.12,1.39a3.63,3.63,0,0,1,3.12-1.7h.51a.29.29,0,0,1,.31.31v1a.29.29,0,0,1-.31.32h-.65A2.75,2.75,0,0,0,528.2,96.75Z" fill="#63636c"/><path d="M546,104.34a.33.33,0,0,1-.33-.31l-.1-1a3.73,3.73,0,0,1-3.17,1.58c-2.57,0-4.08-1.7-4.08-4.34v-4c0-2.65,1.51-4.35,4.08-4.35a3.64,3.64,0,0,1,3,1.42V87.92a.29.29,0,0,1,.31-.31h1.15a.28.28,0,0,1,.29.31V104a.28.28,0,0,1-.29.31ZM542.7,103a2.68,2.68,0,0,0,2.74-2.88V96.37a2.68,2.68,0,0,0-2.74-2.88,2.48,2.48,0,0,0-2.62,2.71v4.11A2.48,2.48,0,0,0,542.7,103Z" fill="#63636c"/><path d="M552,100.12a2.59,2.59,0,0,0,2.81,2.68h3.31a.29.29,0,0,1,.32.32V104a.29.29,0,0,1-.32.31h-3.36a4.15,4.15,0,0,1-4.48-4.32V96.49a4.23,4.23,0,0,1,4.46-4.56c2.57,0,4.34,1.75,4.34,4.56v1.92a.28.28,0,0,1-.28.31H552Zm0-3.82v1.06h5.43V96.3a2.72,2.72,0,1,0-5.43,0Z" fill="#63636c"/><path d="M566.29,104.05a.38.38,0,0,1-.38.29H564.8a.37.37,0,0,1-.38-.29l-3.89-11.59a.21.21,0,0,1,.22-.29H562a.37.37,0,0,1,.38.29l3,9.5,3-9.5a.4.4,0,0,1,.39-.29H570c.2,0,.27.12.22.29Z" fill="#63636c"/><path d="M573.61,100.12a2.59,2.59,0,0,0,2.81,2.68h3.31a.29.29,0,0,1,.31.32V104a.29.29,0,0,1-.31.31h-3.36a4.16,4.16,0,0,1-4.49-4.32V96.49a4.23,4.23,0,0,1,4.47-4.56c2.57,0,4.34,1.75,4.34,4.56v1.92a.28.28,0,0,1-.29.31h-6.79Zm0-3.82v1.06H579V96.3a2.72,2.72,0,1,0-5.43,0Z" fill="#63636c"/><path d="M583.62,87.92a.28.28,0,0,1,.29-.31h1.17a.28.28,0,0,1,.29.31V104a.28.28,0,0,1-.29.31h-1.17a.28.28,0,0,1-.29-.31Z" fill="#63636c"/><path d="M597.44,96.49V100a4.48,4.48,0,1,1-9,0V96.49a4.48,4.48,0,1,1,9,0Zm-7.2-.14v3.81a2.72,2.72,0,1,0,5.43,0V96.35a2.72,2.72,0,1,0-5.43,0Z" fill="#63636c"/><path d="M601.67,92.17a.32.32,0,0,1,.33.31l.1,1a3.77,3.77,0,0,1,3.19-1.58c2.55,0,4.06,1.7,4.06,4.35v4c0,2.64-1.51,4.34-4.06,4.34a3.68,3.68,0,0,1-3-1.42v5.36a.28.28,0,0,1-.28.31h-1.18a.28.28,0,0,1-.29-.31v-16a.28.28,0,0,1,.29-.31ZM605,93.49a2.68,2.68,0,0,0-2.76,2.88v3.77A2.68,2.68,0,0,0,605,103a2.48,2.48,0,0,0,2.6-2.71V96.2A2.48,2.48,0,0,0,605,93.49Z" fill="#63636c"/><path d="M614.17,104a.28.28,0,0,1-.29.31h-1.17a.28.28,0,0,1-.29-.31V92.48a.28.28,0,0,1,.29-.31h.89a.3.3,0,0,1,.33.31l.07,1.06a3.72,3.72,0,0,1,3.17-1.61A3.61,3.61,0,0,1,620.7,94a3.66,3.66,0,0,1,3.43-2.09c2.52,0,4,1.68,4,4.27V104a.31.31,0,0,1-.32.31h-1.15a.29.29,0,0,1-.31-.31V96.2a2.45,2.45,0,0,0-2.52-2.71,2.62,2.62,0,0,0-2.69,2.76V104a.28.28,0,0,1-.29.31h-1.15a.29.29,0,0,1-.31-.31V96.2a2.45,2.45,0,0,0-2.52-2.71,2.64,2.64,0,0,0-2.69,2.79Z" fill="#63636c"/><path d="M632.79,100.12a2.59,2.59,0,0,0,2.81,2.68h3.32a.29.29,0,0,1,.31.32V104a.29.29,0,0,1-.31.31h-3.36a4.15,4.15,0,0,1-4.49-4.32V96.49a4.41,4.41,0,1,1,8.81,0v1.92a.28.28,0,0,1-.29.31h-6.8Zm0-3.82v1.06h5.43V96.3a2.72,2.72,0,1,0-5.43,0Z" fill="#63636c"/><path d="M644.48,104a.28.28,0,0,1-.29.31H643a.28.28,0,0,1-.29-.31V92.48a.28.28,0,0,1,.29-.31h.89a.32.32,0,0,1,.33.31l.1,1.06a3.76,3.76,0,0,1,3.22-1.61c2.56,0,4,1.68,4,4.27V104a.28.28,0,0,1-.29.31h-1.18a.29.29,0,0,1-.29-.31V96.2a2.47,2.47,0,0,0-2.59-2.71,2.68,2.68,0,0,0-2.76,2.88Z" fill="#63636c"/><path d="M657.3,93.66v6.91c0,1.49.7,2.26,2,2.26h.84a.28.28,0,0,1,.31.29V104a.29.29,0,0,1-.31.31h-.94c-2.21,0-3.62-1.22-3.62-3.84V93.66H654a.29.29,0,0,1-.32-.31v-.87a.29.29,0,0,1,.32-.31h1.56V88.88a.29.29,0,0,1,.31-.31H657a.28.28,0,0,1,.29.31v3.29h2.81a.29.29,0,0,1,.31.31v.87a.29.29,0,0,1-.31.31Z" fill="#63636c"/><path d="M670.07,93.66v6.91c0,1.49.69,2.26,2,2.26h.84a.29.29,0,0,1,.32.29V104a.29.29,0,0,1-.32.31h-.93c-2.21,0-3.63-1.22-3.63-3.84V93.66h-1.56a.29.29,0,0,1-.31-.31v-.87a.29.29,0,0,1,.31-.31h1.56V88.88a.29.29,0,0,1,.32-.31h1.15a.28.28,0,0,1,.29.31v3.29h2.8a.29.29,0,0,1,.32.31v.87a.29.29,0,0,1-.32.31Z" fill="#63636c"/><path d="M676.74,100.12a2.59,2.59,0,0,0,2.81,2.68h3.31a.29.29,0,0,1,.31.32V104a.29.29,0,0,1-.31.31H679.5A4.15,4.15,0,0,1,675,100V96.49a4.41,4.41,0,1,1,8.81,0v1.92a.28.28,0,0,1-.29.31h-6.79Zm0-3.82v1.06h5.42V96.3a2.72,2.72,0,1,0-5.42,0Z" fill="#63636c"/><path d="M693.42,104.34a.34.34,0,0,1-.36-.29l-.1-1a3.67,3.67,0,0,1-3.19,1.58c-2.28,0-3.86-1.22-3.86-3.55s1.65-3.41,4.32-3.75l2.59-.33V96a2.16,2.16,0,0,0-2.47-2.25H687a.29.29,0,0,1-.28-.32v-.91a.28.28,0,0,1,.28-.31h3.51c2.57,0,4.06,1.49,4.06,3.89v8a.29.29,0,0,1-.32.31ZM690,103.09a2.65,2.65,0,0,0,2.81-2.83v-1.9l-2.33.29c-1.2.14-2.78.53-2.78,2.3A2,2,0,0,0,690,103.09Z" fill="#63636c"/><path d="M699.71,104a.28.28,0,0,1-.29.31h-1.18A.28.28,0,0,1,698,104V92.48a.28.28,0,0,1,.29-.31h.89a.31.31,0,0,1,.34.31l.07,1.06a3.71,3.71,0,0,1,3.17-1.61A3.6,3.6,0,0,1,706.23,94a3.69,3.69,0,0,1,3.44-2.09c2.52,0,4,1.68,4,4.27V104a.3.3,0,0,1-.31.31h-1.15a.29.29,0,0,1-.31-.31V96.2a2.45,2.45,0,0,0-2.53-2.71,2.61,2.61,0,0,0-2.68,2.76V104a.28.28,0,0,1-.29.31h-1.15a.29.29,0,0,1-.32-.31V96.2a2.45,2.45,0,0,0-2.52-2.71,2.63,2.63,0,0,0-2.68,2.79Z" fill="#63636c"/></g></g><g id="Execution-and-ROI" style="isolation:isolate"><g style="isolation:isolate"><path d="M500.89,14.8a.28.28,0,0,1-.29.29h-6.28v5.59h7.05a.3.3,0,0,1,.32.32v1a.3.3,0,0,1-.32.31H492.8a.29.29,0,0,1-.31-.31V6.88a.29.29,0,0,1,.31-.31h8.38a.29.29,0,0,1,.31.31v1a.29.29,0,0,1-.31.32h-6.86v5.23h6.28a.28.28,0,0,1,.29.31Z" fill="#63636c"/><path d="M508.93,16.08l3.67,6a.18.18,0,0,1-.14.31h-1.37a.47.47,0,0,1-.43-.26L508,17.59l-2.66,4.49a.49.49,0,0,1-.43.26h-1.25a.21.21,0,0,1-.17-.31l3.62-5.74-3.5-5.81a.19.19,0,0,1,.14-.31h1.37a.45.45,0,0,1,.43.26l2.55,4.32,2.64-4.32a.48.48,0,0,1,.41-.26h1.27a.18.18,0,0,1,.14.31Z" fill="#63636c"/><path d="M516,18.12a2.59,2.59,0,0,0,2.81,2.68h3.31a.29.29,0,0,1,.31.32V22a.29.29,0,0,1-.31.31h-3.36A4.15,4.15,0,0,1,514.26,18V14.49a4.41,4.41,0,1,1,8.81,0v1.92a.28.28,0,0,1-.29.31H516Zm0-3.82v1.06h5.42V14.3a2.72,2.72,0,1,0-5.42,0Z" fill="#63636c"/><path d="M530,10.17h2.76a.29.29,0,0,1,.31.31v.91a.29.29,0,0,1-.31.32H530a2.67,2.67,0,0,0-2.79,2.9V17.9a2.7,2.7,0,0,0,2.81,2.9h2.81a.29.29,0,0,1,.31.32V22a.29.29,0,0,1-.31.31H530a4.26,4.26,0,0,1-4.51-4.56V14.73A4.23,4.23,0,0,1,530,10.17Z" fill="#63636c"/><path d="M535.67,18.38v-7.9a.28.28,0,0,1,.29-.31h1.17a.28.28,0,0,1,.29.31v7.9A2.39,2.39,0,0,0,539.89,21a2.67,2.67,0,0,0,2.74-2.88V10.48a.29.29,0,0,1,.31-.31h1.15a.28.28,0,0,1,.29.31V22a.28.28,0,0,1-.29.31h-.89a.34.34,0,0,1-.33-.31l-.1-1a3.8,3.8,0,0,1-3.19,1.58C537.08,22.58,535.67,20.92,535.67,18.38Z" fill="#63636c"/><path d="M550.31,11.66v6.91c0,1.49.69,2.26,2,2.26h.84a.28.28,0,0,1,.31.29V22a.29.29,0,0,1-.31.31h-.94c-2.21,0-3.62-1.22-3.62-3.84V11.66H547a.29.29,0,0,1-.32-.31v-.87a.29.29,0,0,1,.32-.31h1.56V6.88a.29.29,0,0,1,.31-.31H550a.28.28,0,0,1,.29.31v3.29h2.81a.29.29,0,0,1,.31.31v.87a.29.29,0,0,1-.31.31Z" fill="#63636c"/><path d="M556.14,7.91a.28.28,0,0,1-.31-.28V5.92a.29.29,0,0,1,.31-.31h1.18a.29.29,0,0,1,.31.31V7.63a.28.28,0,0,1-.31.28Zm-.29,2.57a.28.28,0,0,1,.29-.31h1.18a.28.28,0,0,1,.28.31V22a.28.28,0,0,1-.28.31h-1.18a.28.28,0,0,1-.29-.31Z" fill="#63636c"/><path d="M569.68,14.49V18a4.48,4.48,0,1,1-9,0V14.49a4.48,4.48,0,1,1,9,0Zm-7.2-.14v3.81a2.72,2.72,0,1,0,5.42,0V14.35a2.72,2.72,0,1,0-5.42,0Z" fill="#63636c"/><path d="M574.48,22a.29.29,0,0,1-.29.31H573a.28.28,0,0,1-.29-.31V10.48a.28.28,0,0,1,.29-.31h.89a.32.32,0,0,1,.33.31l.1,1.06a3.79,3.79,0,0,1,3.22-1.61c2.57,0,4,1.68,4,4.27V22a.28.28,0,0,1-.29.31h-1.17a.28.28,0,0,1-.29-.31V14.2a2.48,2.48,0,0,0-2.59-2.71,2.68,2.68,0,0,0-2.76,2.88Z" fill="#63636c"/><path d="M596.79,22.34a.33.33,0,0,1-.35-.29l-.1-1.05a3.67,3.67,0,0,1-3.19,1.58c-2.28,0-3.87-1.22-3.87-3.55s1.66-3.41,4.32-3.75l2.59-.33V14a2.15,2.15,0,0,0-2.47-2.25h-3.31a.29.29,0,0,1-.29-.32v-.91a.28.28,0,0,1,.29-.31h3.5c2.57,0,4.06,1.49,4.06,3.89v8a.29.29,0,0,1-.31.31Zm-3.4-1.25a2.65,2.65,0,0,0,2.8-2.83v-1.9l-2.32.29c-1.2.14-2.79.53-2.79,2.3A2,2,0,0,0,593.39,21.09Z" fill="#63636c"/><path d="M603.08,22a.28.28,0,0,1-.29.31h-1.17a.28.28,0,0,1-.29-.31V10.48a.28.28,0,0,1,.29-.31h.89a.32.32,0,0,1,.33.31l.1,1.06a3.76,3.76,0,0,1,3.21-1.61c2.57,0,4,1.68,4,4.27V22a.28.28,0,0,1-.29.31h-1.18a.28.28,0,0,1-.29-.31V14.2a2.47,2.47,0,0,0-2.59-2.71,2.68,2.68,0,0,0-2.76,2.88Z" fill="#63636c"/><path d="M620.87,22.34a.34.34,0,0,1-.34-.31l-.1-1a3.73,3.73,0,0,1-3.16,1.58c-2.57,0-4.08-1.7-4.08-4.34v-4c0-2.65,1.51-4.35,4.08-4.35a3.61,3.61,0,0,1,3,1.42V5.92a.29.29,0,0,1,.31-.31h1.15a.28.28,0,0,1,.29.31V22a.28.28,0,0,1-.29.31ZM617.55,21a2.67,2.67,0,0,0,2.74-2.88V14.37a2.67,2.67,0,0,0-2.74-2.88,2.48,2.48,0,0,0-2.61,2.71v4.11A2.48,2.48,0,0,0,617.55,21Z" fill="#63636c"/><path d="M632.67,22a.28.28,0,0,1-.28.31h-1.23a.29.29,0,0,1-.31-.31V6.88a.29.29,0,0,1,.31-.31h4.54c3.07,0,5.3,1.85,5.3,4.7a4.53,4.53,0,0,1-2.93,4.4L640.83,22a.24.24,0,0,1-.19.36h-1.37a.4.4,0,0,1-.4-.29l-2.62-5.95c-.26,0-.43,0-.62,0h-3Zm2.88-13.85h-2.88v6.36h2.88c2.21,0,3.58-1.3,3.58-3.24S637.76,8.18,635.55,8.18Z" fill="#63636c"/><path d="M654.13,11.37v6.17a4.81,4.81,0,0,1-5.18,5c-3.08,0-5.19-1.94-5.19-5V11.37c0-3.1,2-5,5.19-5A4.81,4.81,0,0,1,654.13,11.37Zm-8.54,0v6.27a3.35,3.35,0,0,0,6.69,0V11.32a3.35,3.35,0,0,0-6.69,0Z" fill="#63636c"/><path d="M659.22,6.57a.28.28,0,0,1,.29.31V22a.28.28,0,0,1-.29.31H658a.29.29,0,0,1-.31-.31V6.88a.29.29,0,0,1,.31-.31Z" fill="#63636c"/></g></g><g id="approximate-2"><path id="Path" d="M38.5,415s264.92,25.33,314-378.69" fill="none" stroke-linecap="round" stroke-width="3" stroke="url(#linear-gradient)"/></g><circle id="Oval-Copy-11" cx="352.5" cy="14.5" r="13" fill="none" stroke-width="3" stroke="url(#linear-gradient-2)"/><rect id="Rectangle" x="394.5" y="161.34" width="10" height="254" fill="#63636c" fill-opacity="0.5"/><rect id="Rectangle-Copy" x="394.5" y="44.34" width="10" height="101" fill="#63636c" fill-opacity="0.5"/><rect id="Rectangle-Copy-2" x="394.5" y="0.34" width="10" height="28" fill="#63636c" fill-opacity="0.5"/><path id="Path-2" data-name="Path" d="M33.5,414.84c0-3-23.26-5.5-26.34-5.5a5.59,5.59,0,0,0-4.9,2.73,5.44,5.44,0,0,0,0,5.54,5.61,5.61,0,0,0,4.9,2.73C10.24,420.34,33.5,417.88,33.5,414.84Z" fill="none" stroke-width="3" stroke="url(#linear-gradient-3)"/></g></g></svg>