<svg xmlns="http://www.w3.org/2000/svg" viewBox="0 0 32 32"><g id="Layer_2" data-name="Layer 2"><g id="Layer_1-2" data-name="Layer 1"><path d="M25.4,24.19H21.51V17.92c0-1.58-.57-2.66-2-2.66a2.13,2.13,0,0,0-2,1.43,2.73,2.73,0,0,0-.13.95v6.55H13.51s.05-10.63,0-11.73H17.4v1.66a3.9,3.9,0,0,1,3.52-1.93c2.56,0,4.48,1.67,4.48,5.28ZM9.4,10.86h0a2,2,0,0,1-2.16-2,2,2,0,0,1,2.21-2,2,2,0,1,1,0,4.05Zm1.95,13.33H7.45V12.46h3.9ZM29.69,0H2.31A2.3,2.3,0,0,0,0,2.31V29.69A2.3,2.3,0,0,0,2.31,32H29.69A2.3,2.3,0,0,0,32,29.69V2.31A2.3,2.3,0,0,0,29.69,0Z" fill="#63636c"/></g></g></svg>