<svg xmlns="http://www.w3.org/2000/svg" viewBox="0 0 170.38 33.29"><g id="Layer_2" data-name="Layer 2"><g id="Layer_1-2" data-name="Layer 1"><path id="Path" d="M18.92,33.29A60.27,60.27,0,0,0,.21,21.61c-.14-1.67-.21-3.29-.21-5s.07-3.32.21-5A60.27,60.27,0,0,0,18.92,0V11.54a25.47,25.47,0,0,1-8,5v.25a25.47,25.47,0,0,1,8,5Z" fill="#193af9"/><path id="Path-2" data-name="Path" d="M50.65,12.44a.5.5,0,0,1,.39.14.5.5,0,0,1,.15.4v18.6A.52.52,0,0,1,51,32a.51.51,0,0,1-.39.15h-1.9a.85.85,0,0,1-.8-.45l-6.8-12.46V31.58A.51.51,0,0,1,41,32a.5.5,0,0,1-.4.15H38.28a.5.5,0,0,1-.4-.15.51.51,0,0,1-.14-.39V13a.49.49,0,0,1,.54-.54h2.35a.89.89,0,0,1,.81.45l6.34,11.82V13a.54.54,0,0,1,.15-.4.51.51,0,0,1,.39-.14Z" fill="#e6e6e6"/><path id="Shape" d="M58,26.75a2.33,2.33,0,0,0,2.61,2.31h4.14a.5.5,0,0,1,.53.54v2a.51.51,0,0,1-.14.39.53.53,0,0,1-.39.15H60.47c-3.53,0-6-2.22-6-5.6V22.41a5.56,5.56,0,0,1,5.91-5.91c3.39,0,5.72,2.28,5.72,5.91V25a.52.52,0,0,1-.13.38.51.51,0,0,1-.38.16H58ZM58,22v1.08h4.75V22a2.32,2.32,0,0,0-2.31-2.6A2.42,2.42,0,0,0,58,22Z" fill="#e6e6e6"/><path id="Path-3" data-name="Path" d="M72.81,31.58a.53.53,0,0,1-.15.39.54.54,0,0,1-.39.15H69.73a.56.56,0,0,1-.39-.15.53.53,0,0,1-.15-.39V17.35a.53.53,0,0,1,.15-.39.56.56,0,0,1,.39-.15h2.06a.56.56,0,0,1,.43.14.56.56,0,0,1,.2.4l.12.9a4.39,4.39,0,0,1,3.65-1.74,4.25,4.25,0,0,1,4.11,2.37,4.34,4.34,0,0,1,4-2.37c3.24,0,4.79,2.22,4.79,5.45v9.6A.47.47,0,0,1,89,32a.5.5,0,0,1-.38.15H86.05a.51.51,0,0,1-.54-.54v-9.4c0-1.44-.74-2.52-2.22-2.52a2.36,2.36,0,0,0-1.72.71,2.31,2.31,0,0,0-.64,1.75v9.48a.48.48,0,0,1-.15.39.47.47,0,0,1-.39.15H77.87a.52.52,0,0,1-.39-.15.51.51,0,0,1-.14-.39V22.16a2.23,2.23,0,0,0-2.22-2.52,2.33,2.33,0,0,0-2.33,2.55Z" fill="#e6e6e6"/><path id="Shape-2" data-name="Shape" d="M104.11,22.41v4.11a6,6,0,0,1-12,0V22.41a6,6,0,0,1,12,0Zm-8.33-.25V26.8a2.38,2.38,0,1,0,4.74,0V22.16a2.38,2.38,0,1,0-4.74,0Z" fill="#e6e6e6"/><path id="Path-4" data-name="Path" d="M107.2,27.21V17.35a.5.5,0,0,1,.15-.39.54.54,0,0,1,.38-.15h2.55a.54.54,0,0,1,.39.15.53.53,0,0,1,.15.39V27A2,2,0,0,0,113,29.27a2.38,2.38,0,0,0,2.42-2.57V17.35a.51.51,0,0,1,.54-.54h2.52a.47.47,0,0,1,.39.15.48.48,0,0,1,.15.39V31.58a.52.52,0,0,1-.15.39.51.51,0,0,1-.39.15h-2.07a.6.6,0,0,1-.63-.54l-.15-.87a4.42,4.42,0,0,1-3.65,1.7C108.72,32.41,107.2,30.29,107.2,27.21Z" fill="#e6e6e6"/><path id="Path-5" data-name="Path" d="M122.62,11.82a.5.5,0,0,1,.14-.39.5.5,0,0,1,.4-.15h2.55a.48.48,0,0,1,.37.15.52.52,0,0,1,.14.39V31.61a.5.5,0,0,1-.14.39.48.48,0,0,1-.37.15h-2.55a.5.5,0,0,1-.39-.14.5.5,0,0,1-.15-.4Z" fill="#e6e6e6"/><path id="Shape-3" data-name="Shape" d="M141.4,22.41v4.11a6,6,0,0,1-12,0V22.41a6,6,0,0,1,12,0Zm-8.33-.25V26.8a2.38,2.38,0,1,0,4.74,0V22.16a2.38,2.38,0,1,0-4.74,0Z" fill="#e6e6e6"/><path id="Path-6" data-name="Path" d="M144.48,27.21V17.35a.51.51,0,0,1,.54-.54h2.55A.54.54,0,0,1,148,17a.53.53,0,0,1,.15.39V27a2,2,0,0,0,2.13,2.28,2.38,2.38,0,0,0,2.42-2.57V17.35a.48.48,0,0,1,.15-.39.47.47,0,0,1,.39-.15h2.52a.51.51,0,0,1,.54.54V31.58a.51.51,0,0,1-.54.54h-2.08a.6.6,0,0,1-.63-.54l-.14-.87a4.43,4.43,0,0,1-3.7,1.7C146,32.41,144.48,30.29,144.48,27.21Z" fill="#e6e6e6"/><path id="Path-7" data-name="Path" d="M159.91,32.12a.48.48,0,0,1-.39-.15.52.52,0,0,1-.15-.39V29.66a.51.51,0,0,1,.16-.39.5.5,0,0,1,.38-.15h4.81c1.48,0,2.07-.54,2.07-1.43s-.45-1.17-1.48-1.48l-2.54-.78c-1.92-.6-3.51-1.89-3.51-4.25s2-4.35,5.28-4.35h4.28a.51.51,0,0,1,.39.16.5.5,0,0,1,.15.38v1.92a.52.52,0,0,1-.16.37.57.57,0,0,1-.38.14h-4.43c-1.11,0-1.71.42-1.71,1.13s.27,1,1.41,1.39l2.09.65c2.22.69,4.2,1.71,4.2,4.52s-2.13,4.65-5.69,4.65Z" fill="#e6e6e6"/></g></g></svg>