<svg xmlns="http://www.w3.org/2000/svg" viewBox="0 0 230.6 45.07"><g id="Layer_2" data-name="Layer 2"><g id="Layer_1-2" data-name="Layer 1"><path d="M25.62,45.07A81.37,81.37,0,0,0,.28,29.26C.1,27,0,24.8,0,22.53s.1-4.5.28-6.72A81.37,81.37,0,0,0,25.62,0V15.62a34.69,34.69,0,0,1-10.81,6.75v.33a34.66,34.66,0,0,1,10.81,6.74Z" fill="#193af9"/><path d="M68.57,16.84a.68.68,0,0,1,.73.73V42.75a.69.69,0,0,1-.73.73H66a1.16,1.16,0,0,1-1.09-.61L55.71,26V42.75a.68.68,0,0,1-.73.73H51.82a.68.68,0,0,1-.73-.73V17.57a.68.68,0,0,1,.73-.73H55a1.2,1.2,0,0,1,1.1.61l8.59,16V17.57a.68.68,0,0,1,.73-.73Z" fill="#e6e6e6"/><path d="M78.58,36.22c0,1.78,1.3,3.12,3.53,3.12h5.6a.68.68,0,0,1,.72.73v2.68a.68.68,0,0,1-.72.73H81.87c-4.79,0-8.07-3-8.07-7.58V30.34c0-4.91,3.24-8,8-8,4.58,0,7.74,3.08,7.74,8v3.49a.67.67,0,0,1-.69.73H78.58Zm0-6.45v1.46H85V29.77c0-2.07-1.18-3.52-3.12-3.52S78.58,27.7,78.58,29.77Z" fill="#e6e6e6"/><path d="M98.57,42.75a.7.7,0,0,1-.73.73H94.4a.7.7,0,0,1-.73-.73V23.49a.7.7,0,0,1,.73-.73h2.79a.77.77,0,0,1,.85.73l.17,1.21a5.92,5.92,0,0,1,4.94-2.35,5.76,5.76,0,0,1,5.56,3.21,5.87,5.87,0,0,1,5.47-3.21c4.38,0,6.49,3,6.49,7.38v13a.7.7,0,0,1-.73.73h-3.45a.69.69,0,0,1-.73-.73V30c0-1.95-1-3.41-3-3.41a3.14,3.14,0,0,0-3.2,3.33V42.75a.68.68,0,0,1-.73.73h-3.41a.68.68,0,0,1-.72-.73V30c0-1.95-1.06-3.41-3-3.41a3.15,3.15,0,0,0-3.16,3.45Z" fill="#e6e6e6"/><path d="M140.94,30.34V35.9c0,4.9-3.24,8-8.06,8s-8.11-3.08-8.11-8V30.34c0-4.91,3.28-8,8.11-8S140.94,25.43,140.94,30.34ZM129.67,30v6.28c0,2,1.18,3.49,3.21,3.49s3.2-1.46,3.2-3.49V30c0-2-1.18-3.53-3.2-3.53S129.67,28,129.67,30Z" fill="#e6e6e6"/><path d="M145.12,36.83V23.49a.7.7,0,0,1,.73-.73h3.45a.7.7,0,0,1,.73.73V36.54a2.76,2.76,0,0,0,2.88,3.09,3.23,3.23,0,0,0,3.28-3.49V23.49a.68.68,0,0,1,.73-.73h3.41a.68.68,0,0,1,.73.73V42.75a.69.69,0,0,1-.73.73h-2.8a.8.8,0,0,1-.85-.73l-.21-1.18a6,6,0,0,1-4.94,2.31C147.19,43.88,145.12,41,145.12,36.83Z" fill="#e6e6e6"/><path d="M166,16a.68.68,0,0,1,.73-.73h3.45a.67.67,0,0,1,.69.73v26.8a.67.67,0,0,1-.69.73h-3.45a.69.69,0,0,1-.73-.73Z" fill="#e6e6e6"/><path d="M191.43,30.34V35.9c0,4.9-3.25,8-8.07,8s-8.11-3.08-8.11-8V30.34c0-4.91,3.28-8,8.11-8S191.43,25.43,191.43,30.34ZM180.15,30v6.28c0,2,1.18,3.49,3.21,3.49s3.2-1.46,3.2-3.49V30c0-2-1.18-3.53-3.2-3.53S180.15,28,180.15,30Z" fill="#e6e6e6"/><path d="M195.6,36.83V23.49a.7.7,0,0,1,.73-.73h3.45a.7.7,0,0,1,.73.73V36.54a2.76,2.76,0,0,0,2.88,3.09,3.22,3.22,0,0,0,3.28-3.49V23.49a.68.68,0,0,1,.73-.73h3.41a.68.68,0,0,1,.73.73V42.75a.69.69,0,0,1-.73.73H208a.8.8,0,0,1-.85-.73l-.2-1.18a6,6,0,0,1-5,2.31C197.67,43.88,195.6,41,195.6,36.83Z" fill="#e6e6e6"/><path d="M216.49,43.48a.68.68,0,0,1-.73-.73v-2.6a.7.7,0,0,1,.73-.73H223c2,0,2.8-.73,2.8-1.94,0-1.06-.61-1.58-2-2l-3.44-1.05c-2.6-.82-4.75-2.56-4.75-5.76s2.68-5.88,7.14-5.88h5.8a.7.7,0,0,1,.73.73v2.59a.69.69,0,0,1-.73.69h-6c-1.5,0-2.31.57-2.31,1.54,0,.77.36,1.38,1.9,1.87l2.84.89c3,.93,5.68,2.31,5.68,6.12s-2.88,6.29-7.71,6.29Z" fill="#e6e6e6"/></g></g></svg>