<?xml version="1.0" encoding="utf-8"?>
<!-- Generator: Adobe Illustrator 24.1.0, SVG Export Plug-In . SVG Version: 6.00 Build 0)  -->
<svg version="1.1" id="Layer_1" xmlns="http://www.w3.org/2000/svg" xmlns:xlink="http://www.w3.org/1999/xlink" x="0px" y="0px"
	 viewBox="0 0 21 21" style="enable-background:new 0 0 21 21;" xml:space="preserve">
<style type="text/css">
	.st0{fill:url(#SVGID_1_);}
	.st1{fill:#00051E;}
</style>
<g id="Layer_2_1_">
	<g id="Layer_1-2">
		
			<linearGradient id="SVGID_1_" gradientUnits="userSpaceOnUse" x1="-1.095480e-02" y1="11.4913" x2="20.9608" y2="11.4913" gradientTransform="matrix(1 0 0 -1 0 22)">
			<stop  offset="0" style="stop-color:#0D58D3"/>
			<stop  offset="0.49" style="stop-color:#0899E4"/>
			<stop  offset="0.79" style="stop-color:#04D0F3"/>
			<stop  offset="0.93" style="stop-color:#01F2FC"/>
			<stop  offset="1" style="stop-color:#00FFFF"/>
		</linearGradient>
		<path class="st0" d="M10.5,21C4.7,21,0,16.3,0,10.5C0,9,0.3,7.6,0.9,6.2l0,0c2.4-5.3,8.6-7.6,13.9-5.3s7.6,8.6,5.3,13.9
			C18.3,18.6,14.6,21,10.5,21z M3.6,7.4c-1.7,3.8,0,8.2,3.8,9.9l0,0c1.8,0.8,3.9,0.9,5.7,0.1C17,16,19,11.7,17.5,7.8
			C16,3.9,11.7,2,7.8,3.4C5.9,4.2,4.4,5.6,3.6,7.4L3.6,7.4z"/>
	</g>
</g>
<path class="st1" d="M3.6,7.4c-1.7,3.8,0,8.2,3.8,9.9l0,0c1.8,0.8,3.9,0.9,5.7,0.1C17,16,19,11.7,17.5,7.8C16,3.9,11.7,2,7.8,3.4
	C5.9,4.2,4.4,5.6,3.6,7.4L3.6,7.4z"/>
</svg>
